<svg height="181" width="208" xmlns="http://www.w3.org/2000/svg"><path d="M100.563 180.904v-.001H94.81C34.25 180.903 0 137.677 0 90.545S34.25.185 94.81.185h5.751V.18h6.733v180.725zM207.707 72.473V.186h-81.23zm0 108.43v-72.287l-81.23 72.287z"/><path d="M207.505 152.918A125.98 125.98 0 01181.53 181l-55.347-.18 81.467-72.022zM107 180.758L107.588.035l-6.73-.023v.007C98.597.01 97.707.008 95.104 0 34.545-.197.155 42.918.001 90.05c-.153 47.132 33.955 90.469 94.517 90.667l5.751.018zM207.766 72.654L208 .368 126.769.103z" fill="#eb3337"/><path d="M202.206 113.512l-.953 3.93c-.745 6.147-6.464 33.224-49.789 57.905-2.914 1.66-6.163 3.528-9.67 5.556h-15.318zM126.476.186l81.232 72.287V.186zM94.812 180.903h12.482V.18h-6.731v.007h-.58C36.93 34.216 35.246 35.29 34.689 35.644A116.642 116.642 0 003.927 63.467 94.532 94.532 0 000 90.545c0 47.132 34.25 90.358 94.812 90.358" fill="#211e1f"/><path d="M141.721.185h65.986v5.523a17430.114 17430.114 0 01-13.15 55.06l-62.33-55.463 9.493-5.12m-34.427 71.017l-19.957 109.47c2.446.149 4.935.23 7.475.23h5.751v.002h1.97q2.428-1.432 4.761-2.803z" fill="#f7b418"/><path d="M67.742 177.725c-32.808-8.122-54.6-30.983-63.374-58.67a6279.604 6279.604 0 018.214-31.768c.964-2.341 8.693-19.609 32.633-34.858 1.026-.621 10.855-6.006 50.354-27.341z" fill="#3b557e"/><path d="M33.005 123.793a18.027 18.027 0 00-17.982 17.41 85.012 85.012 0 0016.773 18.58c.401.027.801.062 1.21.062a18.026 18.026 0 000-36.052" fill="#211e1f"/></svg>