<svg xmlns="http://www.w3.org/2000/svg" width="298" height="108.7" overflow="visible"><path d="M294.6 26L265.3 0h29.3v26zm0 13.1l-29.3 26h29.3v-26zM258.8 0h-2.4c-21.8 0-34.2 15.6-34.2 32.5 0 17 12.4 32.5 34.2 32.5h2.4V0zM0 88.4h4.5c4.7 0 8.2 3 8.2 7.9 0 4.7-3.6 7.8-8.2 7.8H0V88.4zm11 7.9c0-4-2.6-6.4-6.5-6.4H1.7v12.7h2.8c3.7.1 6.5-2.5 6.5-6.3zm8.5 8.1c-3.1 0-5.3-2.2-5.3-5.6 0-3 2.1-5.5 5.3-5.5 2.9 0 5 2.1 5 5.1 0 .4-.1.9-.1.9H16c0 2.2 1.5 3.8 3.8 3.8 2.1 0 3.6-1.3 3.6-1.3l.7 1c-.9 1-2.5 1.6-4.6 1.6zm0-9.7c-2.1 0-3.3 1.6-3.4 3.3h6.8c-.1-1.6-1.1-3.3-3.4-3.3zm10.6 8.3c1.2 0 2.3-.5 2.3-1.8s-1.8-1.7-2.6-2c-.8-.3-3.1-.8-3.1-3 0-2 1.7-3 3.4-3s2.8.6 3.5 1.3l-.8 1c-.8-.6-1.7-1-2.7-1-1.1 0-1.9.5-1.9 1.5s1.1 1.4 2.3 1.8c1.1.4 3.4.9 3.4 3.2 0 2.1-1.7 3.3-3.9 3.3-1.8 0-3.2-.8-4-1.9l.9-1.1c1.1 1.3 2.2 1.7 3.2 1.7zm6.8-12c-.7 0-1.2-.5-1.2-1.2s.5-1.2 1.2-1.2 1.2.5 1.2 1.2c-.1.7-.5 1.2-1.2 1.2zm-.9 2.5h1.7v10.7H36V93.5zm13 8.6c-.8 1.3-2.1 2-3.9 2-2.8 0-5.1-1.8-5.1-5.4 0-3.3 2.3-5.4 5.1-5.4 2 0 3.3.9 4 2.1v-1.8h1.7v8.4c0 2.4-.3 3.7-1 4.6-.7 1-2 2.2-4.7 2.2s-4.5-1.5-4.6-1.6l.8-1.2c.7.5 2.2 1.4 3.9 1.4 2.9 0 3.9-1.9 3.9-4.6l-.1-.7zm.1-3.4c0-2.4-1.5-4-3.8-4-2.4 0-3.7 1.8-3.7 4s1.3 4 3.7 4c2.5 0 3.8-1.8 3.8-4zm13.1-1v6.5h-1.7v-6.4c0-2-.6-3.1-2.6-3.1-1.9 0-2.9 1.6-2.9 3.4v6h-1.7V93.5H55v1.7h.1c.5-1.1 1.8-1.9 3.3-1.9 3.1 0 3.8 1.8 3.8 4.4zm8-9.3h4.1c2.7 0 5.1 1.3 5.1 4.3 0 3.2-2.6 4.4-5.4 4.4h-2v7h-1.7V88.4zm7.5 4.4c0-1.9-1.4-2.9-3.4-2.9H72v5.8h2.2c1.9 0 3.5-.8 3.5-2.9zm3.8.7h1.7v1.8c.5-1.3 1.5-2 2.7-2 .7 0 1.1.2 1.1.2l-.1 1.5h-.1c-.4-.2-.8-.2-1.2-.2-1 0-1.6.7-1.8.9-.4.6-.7 1.2-.7 2.8v5.5h-1.7V93.5zm6.4 5.3c0-3.3 2.4-5.6 5.6-5.6 3.1 0 5.6 2.3 5.6 5.6s-2.5 5.5-5.6 5.5c-3.1.1-5.6-2.2-5.6-5.5zm9.5 0c0-2.3-1.5-4.1-3.9-4.1s-3.8 1.8-3.8 4.1 1.5 4.1 3.8 4.1c2.4 0 3.9-1.8 3.9-4.1zm4.4-3.9h-1.5v-1.4h1.5v-1.3c0-2.2.8-4 3.2-4 .9 0 1.5.2 1.6.2l-.2 1.3s-.6-.2-1.2-.2c-1.6 0-1.8 1.2-1.8 2.6v1.4h2.6v1.4h-2.6v9.3h-1.7v-9.3zm10.2 9.5c-3.1 0-5.3-2.2-5.3-5.6 0-3 2.1-5.5 5.3-5.5 2.9 0 5 2.1 5 5.1 0 .4-.1.9-.1.9h-8.4c0 2.2 1.5 3.8 3.8 3.8 2.1 0 3.6-1.3 3.6-1.3l.7 1c-1 1-2.5 1.6-4.6 1.6zm-.1-9.7c-2.1 0-3.3 1.6-3.4 3.3h6.8c-.1-1.6-1-3.3-3.4-3.3zm10.2 8.3c1.2 0 2.3-.5 2.3-1.8s-1.8-1.7-2.6-2c-.8-.3-3.1-.8-3.1-3 0-2 1.7-3 3.4-3s2.8.6 3.5 1.3l-.8 1c-.8-.6-1.7-1-2.7-1-1.1 0-1.9.5-1.9 1.5s1.1 1.4 2.3 1.8c1.1.4 3.4.9 3.4 3.2 0 2.1-1.7 3.3-3.9 3.3-1.8 0-3.2-.8-4-1.9l.9-1.1c1.1 1.3 2.1 1.7 3.2 1.7zm9 0c1.2 0 2.3-.5 2.3-1.8s-1.8-1.7-2.6-2c-.8-.3-3.1-.8-3.1-3 0-2 1.7-3 3.4-3s2.8.6 3.5 1.3l-.8 1c-.8-.6-1.7-1-2.7-1-1.1 0-1.9.5-1.9 1.5s1.1 1.4 2.3 1.8c1.1.4 3.4.9 3.4 3.2 0 2.1-1.7 3.3-3.9 3.3-1.8 0-3.2-.8-4-1.9l.9-1.1c1.1 1.3 2.1 1.7 3.2 1.7zm7.1-12c-.7 0-1.2-.5-1.2-1.2s.5-1.2 1.2-1.2 1.2.5 1.2 1.2-.5 1.2-1.2 1.2zm-.8 2.5h1.7v10.7h-1.7V93.5zm3.7 5.3c0-3.3 2.4-5.6 5.6-5.6 3.1 0 5.6 2.3 5.6 5.6s-2.5 5.5-5.6 5.5c-3.1.1-5.6-2.2-5.6-5.5zm9.5 0c0-2.3-1.5-4.1-3.9-4.1s-3.8 1.8-3.8 4.1 1.5 4.1 3.8 4.1c2.4 0 3.9-1.8 3.9-4.1zm12.5-1.1v6.5h-1.7v-6.4c0-2-.6-3.1-2.6-3.1-1.9 0-2.9 1.6-2.9 3.4v6h-1.7V93.5h1.7v1.7h.1c.5-1.1 1.8-1.9 3.3-1.9 3.1 0 3.8 1.8 3.8 4.4zm9.3 5c-.4.5-1.5 1.6-3.5 1.6s-3.7-1.3-3.7-3.3c0-1.8 1.3-3.1 4.3-3.2l2.9-.1v-.5c0-1.8-1.2-2.6-2.8-2.6-1.6 0-2.9.6-3.2.8l-.6-1.2c.7-.4 2.1-1 3.8-1 3.1 0 4.5 1.6 4.5 4.6v6.3h-1.7v-1.4zm-2.8-3.6c-2 .1-2.6.9-2.6 2s.9 1.9 2.3 1.9c1.5 0 2.7-.8 3.2-1.5V99l-2.9.1zm7.2-10.7h1.7v15.7h-1.7V88.4zm7.7 14.6c1.2 0 2.3-.5 2.3-1.8s-1.8-1.7-2.6-2c-.8-.3-3.1-.8-3.1-3 0-2 1.7-3 3.4-3s2.8.6 3.5 1.3l-.8 1c-.8-.6-1.7-1-2.7-1-1.1 0-1.9.5-1.9 1.5s1.1 1.4 2.3 1.8c1.1.4 3.4.9 3.4 3.2 0 2.1-1.7 3.3-3.9 3.3-1.8 0-3.2-.8-4-1.9l.9-1.1c1.1 1.3 2.2 1.7 3.2 1.7zm10-4.2c0-3.3 2.4-5.6 5.6-5.6 3.1 0 5.6 2.3 5.6 5.6s-2.5 5.5-5.6 5.5c-3.2.1-5.6-2.2-5.6-5.5zm9.4 0c0-2.3-1.5-4.1-3.9-4.1s-3.8 1.8-3.8 4.1 1.5 4.1 3.8 4.1c2.4 0 3.9-1.8 3.9-4.1zm4.5-3.9h-1.5v-1.4h1.5v-1.3c0-2.2.8-4 3.2-4 .9 0 1.5.2 1.6.2l-.2 1.3s-.6-.2-1.2-.2c-1.6 0-1.8 1.2-1.8 2.6v1.4h2.6v1.4H210v9.3h-1.7v-9.3zm24.9 7.4c-.8.8-2.5 2.1-5.7 2.1-4.6 0-8.2-3.1-8.2-8.1 0-5.1 3.7-8.1 8.2-8.1 3.2 0 5 1.3 5.4 1.8l-1.1 3.1c-.3-.4-2-1.6-4.1-1.6-2.7 0-4.7 1.8-4.7 4.9 0 3.1 2.1 4.8 4.7 4.8 2 0 3.4-.8 4.2-1.7l1.3 2.8zm12.4 1.9h-3.5l-.1-1.2c-.5.5-1.4 1.4-3.2 1.4-2 0-4.1-1.1-4.1-3.6s2.3-3.3 4.4-3.4l2.8-.1V97c0-1.2-.8-1.8-2.3-1.8-1.4 0-2.9.6-3.4 1l-1-2.4c1-.5 2.7-1.1 4.8-1.1 2.1 0 3.3.5 4.2 1.3.9.8 1.3 1.9 1.3 3.8v6.4zm-3.6-5l-1.8.1c-1.1 0-1.8.5-1.8 1.4 0 .9.7 1.4 1.7 1.4s1.6-.6 1.9-1v-1.9zm16.8 5h-3.6v-5.9c0-1.5-.2-2.6-1.7-2.6-1.6 0-2 1.3-2 2.9v5.6H248V92.9h3.6v1.6c.6-1 1.6-1.8 3.3-1.8 3.3 0 4.1 2.1 4.1 4.8v6.7zm12.5 0h-3.5l-.1-1.2c-.5.5-1.4 1.4-3.2 1.4-2 0-4.1-1.1-4.1-3.6s2.3-3.3 4.4-3.4l2.8-.1V97c0-1.2-.8-1.8-2.3-1.8-1.4 0-2.9.6-3.4 1l-1-2.4c1-.5 2.7-1.1 4.8-1.1 2.1 0 3.3.5 4.2 1.3.9.8 1.3 1.9 1.3 3.8v6.4zm-3.6-5l-1.8.1c-1.1 0-1.8.5-1.8 1.4 0 .9.7 1.4 1.7 1.4s1.6-.6 1.9-1v-1.9zm17.7 5H282v-1.5h-.1c-.8 1.1-2.2 1.7-3.7 1.7-3.3 0-5.3-2.6-5.3-5.9 0-3.3 2.1-5.8 5.3-5.8 2.1 0 3.2 1 3.6 1.6v-5.9h3.6v15.8zm-6.1-8.6c-1.6 0-2.6 1.2-2.6 2.9s1.1 2.9 2.6 2.9c1.6 0 2.6-1.2 2.6-2.9s-1-2.9-2.6-2.9zm18.6 8.6h-3.5l-.1-1.2c-.5.5-1.4 1.4-3.2 1.4-2 0-4.1-1.1-4.1-3.6s2.3-3.3 4.4-3.4l2.8-.1V97c0-1.2-.8-1.8-2.3-1.8-1.4 0-2.9.6-3.4 1l-1-2.4c1-.5 2.7-1.1 4.8-1.1 2.1 0 3.3.5 4.2 1.3.9.8 1.3 1.9 1.3 3.8v6.4zm-3.6-5l-1.8.1c-1.1 0-1.8.5-1.8 1.4 0 .9.7 1.4 1.7 1.4s1.6-.6 1.9-1v-1.9z" fill="#ef3e33"/></svg>