<svg height="180.99964" viewBox="0 0 208.00006 180.99964" width="208.00006" xmlns="http://www.w3.org/2000/svg"><path d="m100.5625 180.90369v-.001h-5.751c-60.561 0-94.811-43.226-94.811-90.358s34.25-90.359 94.811-90.359h5.751v-.007h6.732v180.725zm107.145-108.431v-72.28701h-81.231zm0 108.43v-72.287l-81.231 72.287z"/><path d="m207.50507 152.91767a125.97971 125.97971 0 0 1 -25.976 28.082l-55.347-.18 81.467-72.022zm-100.505 27.84.588-180.723-6.731-.023v.007c-2.259-.008-3.149-.011-5.752-.018-60.561-.198-94.95 42.917-95.104 90.049-.153 47.132 33.955 90.469 94.517 90.667 2.602.008 3.493.011 5.751.018v.001zm100.766-108.104.23395-72.286-81.231-.265z" fill="#eb3337"/><path d="m202.206 113.51167c-.468 1.932-.794 3.278-.953 3.93-.745 6.147-6.464 33.224-49.789 57.905-2.914 1.66-6.163 3.528-9.67 5.556h-15.318zm-75.73-113.32599 81.23206 72.287v-72.287zm-31.664 180.71698h5.751v.001h6.731v-180.725h-6.731v.007h-.58c-63.053 34.03-64.737 35.104-65.294 35.458a116.64186 116.64186 0 0 0 -30.762 27.823 94.53189 94.53189 0 0 0 -3.927 27.07803c0 47.132 34.25 90.358 94.812 90.358" fill="#211e1f"/><path d="m141.72137.18549h65.986v5.523c-4.159 17.567-8.886 37.313-13.151 55.06l-62.328-55.463q4.755-2.565 9.493-5.12m-34.42694 71.017-19.95703 109.46903c2.446.149 4.935.231 7.475.231h5.751v.001h1.969q2.42853-1.43106 4.762-2.803z" fill="#f7b418"/><path d="m67.74176 177.725c-32.808-8.12194-54.6-30.983-63.374-58.67 4.357-17.021 7.567-29.297 8.214-31.768.964-2.341 8.693-19.609 32.633-34.858 1.026-.621 10.855-6.006 50.354-27.341z" fill="#3b557e"/><path d="m33.00531 123.79328a18.02678 18.02678 0 0 0 -17.98206 17.41 85.01241 85.01241 0 0 0 16.773 18.58c.401.027.801.06195 1.20905.06195a18.026 18.026 0 0 0 0-36.052" fill="#211e1f"/></svg>